# xmcd
#
# Track frame offsets: 
#        150
#        13737
#        27686
#        50164
#        63818
#        74764
#        96041
#        120114
#        134794
#        148046
#        164427
#        178316
#        191452
#        209602
#        224933
#        239817
#        252513
#        267771
#        285110
#        304651
#        318060
#
# Disc length: 4424 seconds
#
# Revision: 0
# Processed by: cddbd v1.5.2PL0 Copyright (c) Steve Scherf et al.
# Submitted via: ExactAudioCopy v1.0b1
#
DISCID=52114615
DTITLE=João Neto and Frederico - Só Modão
DYEAR=2009
DGENRE=Sertanejo
TTITLE0=Sai Pra Lá
TTITLE1=Boate Azul
TTITLE2=Dama de Vermelho - Fruto Especial - Esta Noite Eu Queria Que o
TTITLE2=Mundo Acabasse
TTITLE3=Revelação
TTITLE4=Chalana
TTITLE5=Bijuteria
TTITLE6=Canoeiro - Peito Sadio
TTITLE7=O Cara Errado
TTITLE8=Sublime Renúncia
TTITLE9=De Igual Para Igual
TTITLE10=Se Entrega Amor
TTITLE11=Saudade Da Minha Terra
TTITLE12=Galopeira - Vá Pro Inferno Com Seu Amor - Pedaço De Poema
TTITLE13=Brigas
TTITLE14=É Pra Valer
TTITLE15=Goiás É Mais
TTITLE16=Majestade o Sabiá
TTITLE17=A Sua Vista
TTITLE18=Mais Uma Noite Sem Você - Cadê Você - Tá Faltando Amor
TTITLE19=Pagode Em Brasília
TTITLE20=O Ipê e o Prisioneiro
EXTD=
EXTT0=
EXTT1=
EXTT2=
EXTT3=
EXTT4=
EXTT5=
EXTT6=
EXTT7=
EXTT8=
EXTT9=
EXTT10=
EXTT11=
EXTT12=
EXTT13=
EXTT14=
EXTT15=
EXTT16=
EXTT17=
EXTT18=
EXTT19=
EXTT20=
PLAYORDER=
